<svg width="49" height="42" viewBox="0 0 115.6 63.4" fill="none" xmlns="http://www.w3.org/2000/svg">
<path d="M97.16 21.6021C97.16 21.7003 97.16 21.7003 97.16 21.6021C96.3747 19.2439 94.9999 16.8858 93.0358 14.7241C87.8309 9.12347 80.0727 6.0775 72.7073 5.97925C65.1455 5.97925 58.173 8.73044 51.004 10.9903C48.4507 11.7764 45.6027 12.6607 42.853 12.5625C41.5763 12.5625 40.4961 12.2677 39.3176 11.7764C39.023 11.7764 38.532 10.9903 38.2374 11.0886C35.9787 11.3834 34.1128 17.6718 33.6217 19.4404C32.9343 22.7812 32.8361 27.0062 34.211 30.1504C34.3092 30.4452 34.4074 30.6417 34.6038 30.8382C33.6217 36.9301 34.3092 49.114 35.4876 54.9111C36.2733 54.5181 37.1571 54.4198 38.041 54.5181C38.3356 54.6164 38.6302 54.7146 38.9248 54.9111C38.6302 50.5878 38.532 45.7732 38.532 40.2709C38.532 38.3057 38.6302 36.3406 38.8266 34.572C43.6386 36.4389 50.4148 34.8667 55.1286 34.8667C68.5827 34.8667 82.9206 42.1377 95.8837 35.7511C95.8837 36.3406 95.9819 36.4389 96.2765 36.3406C96.3747 37.6179 96.4729 38.8953 96.4729 40.2709C96.4729 45.8715 96.3747 50.8826 96.1783 55.3042C96.3747 55.1076 96.5711 55.0094 96.7675 54.9111C97.16 54.7146 97.6514 54.7146 98.0442 54.7146C98.3388 54.7146 98.7316 54.8129 99.0263 54.8129C101.874 46.461 103.937 28.087 97.16 21.6021Z"
 fill="#4A4A4A"/>
</svg>
